<svg xmlns="http://www.w3.org/2000/svg" width="1080" height="608" viewBox="0 0 1080 608">
<rect width="1080" height="608" fill="#111111"/>
<line x1="60" y1="548" x2="1020" y2="548" stroke="#333333" stroke-width="5" stroke-linecap="round"/>
<line x1="280" y1="374" x2="280" y2="458" stroke="#7F7F7F" stroke-width="27" stroke-linecap="round"/>
<line x1="280" y1="458" x2="280" y2="538" stroke="#7F7F7F" stroke-width="20" stroke-linecap="round"/>
<line x1="280" y1="538" x2="312" y2="538" stroke="#7F7F7F" stroke-width="12" stroke-linecap="round"/>
<line x1="280" y1="278" x2="292.9" y2="338.6" stroke="#7F7F7F" stroke-width="19" stroke-linecap="round"/>
<line x1="292.9" y1="338.6" x2="308.9" y2="394.4" stroke="#7F7F7F" stroke-width="15" stroke-linecap="round"/>
<circle cx="312.7" cy="407.9" r="7" fill="#7F7F7F"/>
<line x1="287.5" y1="388" x2="287.5" y2="443" stroke="#6D51C5" stroke-width="13" stroke-linecap="round"/>
<line x1="800" y1="436.7" x2="724.5" y2="473.5" stroke="#7F7F7F" stroke-width="27" stroke-linecap="round"/>
<line x1="724.5" y1="473.5" x2="652.6" y2="508.6" stroke="#7F7F7F" stroke-width="20" stroke-linecap="round"/>
<line x1="652.6" y1="508.6" x2="644.3" y2="539.5" stroke="#7F7F7F" stroke-width="12" stroke-linecap="round"/>
<line x1="891.3" y1="407" x2="896.7" y2="468.8" stroke="#7F7F7F" stroke-width="19" stroke-linecap="round"/>
<line x1="896.7" y1="468.8" x2="901.8" y2="526.6" stroke="#7F7F7F" stroke-width="15" stroke-linecap="round"/>
<circle cx="903" cy="540.5" r="7" fill="#7F7F7F"/>
<line x1="790.7" y1="449.6" x2="741.3" y2="473.7" stroke="#6D51C5" stroke-width="13" stroke-linecap="round"/>
<line x1="280" y1="374" x2="280" y2="270" stroke="#BDBDBD" stroke-width="40" stroke-linecap="round"/>
<circle cx="280" cy="297" r="22" fill="#BDBDBD"/>
<circle cx="280" cy="374" r="20.5" fill="#BDBDBD"/>
<line x1="280" y1="270" x2="280" y2="252.5" stroke="#BDBDBD" stroke-width="13" stroke-linecap="round"/>
<circle cx="280" cy="235" r="21" fill="#BDBDBD"/>
<line x1="280" y1="374" x2="280" y2="458" stroke="#BDBDBD" stroke-width="27" stroke-linecap="round"/>
<line x1="280" y1="458" x2="280" y2="538" stroke="#BDBDBD" stroke-width="20" stroke-linecap="round"/>
<line x1="280" y1="538" x2="312" y2="538" stroke="#BDBDBD" stroke-width="12" stroke-linecap="round"/>
<line x1="280" y1="278" x2="292.9" y2="338.6" stroke="#BDBDBD" stroke-width="19" stroke-linecap="round"/>
<line x1="292.9" y1="338.6" x2="308.9" y2="394.4" stroke="#BDBDBD" stroke-width="15" stroke-linecap="round"/>
<circle cx="312.7" cy="407.9" r="7.5" fill="#BDBDBD"/>
<line x1="287.5" y1="388" x2="287.5" y2="443" stroke="#5E2BFF" stroke-width="13" stroke-linecap="round"/>
<circle cx="280" cy="278" r="12" fill="#7C5AEA"/>
<line x1="290" y1="355.3" x2="290" y2="311.6" stroke="#7C5AEA" stroke-width="13" stroke-linecap="round"/>
<line x1="800" y1="436.7" x2="898.9" y2="404.5" stroke="#BDBDBD" stroke-width="40" stroke-linecap="round"/>
<circle cx="873.2" cy="412.9" r="22" fill="#BDBDBD"/>
<circle cx="800" cy="436.7" r="20.5" fill="#BDBDBD"/>
<line x1="898.9" y1="404.5" x2="914.9" y2="397.4" stroke="#BDBDBD" stroke-width="13" stroke-linecap="round"/>
<circle cx="930.9" cy="390.3" r="21" fill="#BDBDBD"/>
<line x1="800" y1="436.7" x2="724.5" y2="473.5" stroke="#BDBDBD" stroke-width="27" stroke-linecap="round"/>
<line x1="724.5" y1="473.5" x2="652.6" y2="508.6" stroke="#BDBDBD" stroke-width="20" stroke-linecap="round"/>
<line x1="652.6" y1="508.6" x2="644.3" y2="539.5" stroke="#BDBDBD" stroke-width="12" stroke-linecap="round"/>
<line x1="891.3" y1="407" x2="896.7" y2="468.8" stroke="#BDBDBD" stroke-width="19" stroke-linecap="round"/>
<line x1="896.7" y1="468.8" x2="901.8" y2="526.6" stroke="#BDBDBD" stroke-width="15" stroke-linecap="round"/>
<circle cx="903" cy="540.5" r="7.5" fill="#BDBDBD"/>
<line x1="790.7" y1="449.6" x2="741.3" y2="473.7" stroke="#5E2BFF" stroke-width="13" stroke-linecap="round"/>
<circle cx="891.3" cy="407" r="12" fill="#7C5AEA"/>
<line x1="820.9" y1="440.4" x2="862.4" y2="426.9" stroke="#7C5AEA" stroke-width="13" stroke-linecap="round"/>
<path d="M 491.8 274 L 512.6 300 L 491.8 326" stroke="#5628E7" stroke-width="9" fill="none" stroke-linecap="round" stroke-linejoin="round"/>
<path d="M 516.5 274 L 537.3 300 L 516.5 326" stroke="#5628E7" stroke-width="9" fill="none" stroke-linecap="round" stroke-linejoin="round"/>
<path d="M 610 250 Q 560.7 318.1 576.3 384.1" stroke="#ECECEC" stroke-width="6" fill="none" stroke-linecap="round"/>
<path d="M 580 400 L 563.3 384.2 L 587.9 378.4 Z" fill="#ECECEC"/>
<path d="M 760 380 Q 710.7 445.5 646.1 457.1" stroke="#ECECEC" stroke-width="6" fill="none" stroke-linecap="round"/>
<path d="M 630 460 L 646.7 444.2 L 651.1 469 Z" fill="#ECECEC"/>
<path d="M 38 76 L 58 76 L 66 54 L 78 98 L 86 76 L 106 76" stroke="#5628E7" stroke-width="7" fill="none" stroke-linecap="round" stroke-linejoin="round"/>
</svg>