<svg xmlns="http://www.w3.org/2000/svg" width="1080" height="608" viewBox="0 0 1080 608">
<rect width="1080" height="608" fill="#111111"/>
<line x1="60" y1="548" x2="1020" y2="548" stroke="#333333" stroke-width="5" stroke-linecap="round"/>
<line x1="290" y1="374.2" x2="287.1" y2="458.2" stroke="#7F7F7F" stroke-width="27" stroke-linecap="round"/>
<line x1="287.1" y1="458.2" x2="292.6" y2="538" stroke="#7F7F7F" stroke-width="20" stroke-linecap="round"/>
<line x1="292.6" y1="538" x2="324.6" y2="538" stroke="#7F7F7F" stroke-width="12" stroke-linecap="round"/>
<line x1="300" y1="278.8" x2="270.9" y2="333.5" stroke="#7F7F7F" stroke-width="19" stroke-linecap="round"/>
<line x1="270.9" y1="333.5" x2="315.4" y2="370.8" stroke="#7F7F7F" stroke-width="15" stroke-linecap="round"/>
<circle cx="326.1" cy="379.8" r="7" fill="#7F7F7F"/>
<line x1="282.5" y1="471.5" x2="285.9" y2="520.4" stroke="#6D51C5" stroke-width="9" stroke-linecap="round"/>
<line x1="760" y1="374.2" x2="819.4" y2="433.6" stroke="#7F7F7F" stroke-width="27" stroke-linecap="round"/>
<line x1="819.4" y1="433.6" x2="785.6" y2="506.1" stroke="#7F7F7F" stroke-width="20" stroke-linecap="round"/>
<line x1="785.6" y1="506.1" x2="814.6" y2="519.7" stroke="#7F7F7F" stroke-width="12" stroke-linecap="round"/>
<line x1="770" y1="278.8" x2="799.1" y2="333.5" stroke="#7F7F7F" stroke-width="19" stroke-linecap="round"/>
<line x1="799.1" y1="333.5" x2="850.4" y2="306.3" stroke="#7F7F7F" stroke-width="15" stroke-linecap="round"/>
<circle cx="862.7" cy="299.7" r="7" fill="#7F7F7F"/>
<line x1="808.9" y1="443.1" x2="788.2" y2="487.5" stroke="#6D51C5" stroke-width="9" stroke-linecap="round"/>
<line x1="290" y1="374.2" x2="300.9" y2="270.8" stroke="#BDBDBD" stroke-width="40" stroke-linecap="round"/>
<circle cx="298" cy="297.7" r="22" fill="#BDBDBD"/>
<circle cx="290" cy="374.2" r="20.5" fill="#BDBDBD"/>
<line x1="300.9" y1="270.8" x2="303.3" y2="253.5" stroke="#BDBDBD" stroke-width="13" stroke-linecap="round"/>
<circle cx="305.7" cy="236.2" r="21" fill="#BDBDBD"/>
<line x1="290" y1="374.2" x2="349.4" y2="433.6" stroke="#BDBDBD" stroke-width="27" stroke-linecap="round"/>
<line x1="349.4" y1="433.6" x2="315.6" y2="506.1" stroke="#BDBDBD" stroke-width="20" stroke-linecap="round"/>
<line x1="315.6" y1="506.1" x2="344.6" y2="519.7" stroke="#BDBDBD" stroke-width="12" stroke-linecap="round"/>
<line x1="300" y1="278.8" x2="329.1" y2="333.5" stroke="#BDBDBD" stroke-width="19" stroke-linecap="round"/>
<line x1="329.1" y1="333.5" x2="380.4" y2="306.3" stroke="#BDBDBD" stroke-width="15" stroke-linecap="round"/>
<circle cx="392.7" cy="299.7" r="7.5" fill="#BDBDBD"/>
<line x1="338.9" y1="443.1" x2="318.2" y2="487.5" stroke="#5E2BFF" stroke-width="9" stroke-linecap="round"/>
<line x1="760" y1="374.2" x2="770.9" y2="270.8" stroke="#BDBDBD" stroke-width="40" stroke-linecap="round"/>
<circle cx="768" cy="297.7" r="22" fill="#BDBDBD"/>
<circle cx="760" cy="374.2" r="20.5" fill="#BDBDBD"/>
<line x1="770.9" y1="270.8" x2="773.3" y2="253.5" stroke="#BDBDBD" stroke-width="13" stroke-linecap="round"/>
<circle cx="775.7" cy="236.2" r="21" fill="#BDBDBD"/>
<line x1="760" y1="374.2" x2="757.1" y2="458.2" stroke="#BDBDBD" stroke-width="27" stroke-linecap="round"/>
<line x1="757.1" y1="458.2" x2="762.6" y2="538" stroke="#BDBDBD" stroke-width="20" stroke-linecap="round"/>
<line x1="762.6" y1="538" x2="794.6" y2="538" stroke="#BDBDBD" stroke-width="12" stroke-linecap="round"/>
<line x1="770" y1="278.8" x2="740.9" y2="333.5" stroke="#BDBDBD" stroke-width="19" stroke-linecap="round"/>
<line x1="740.9" y1="333.5" x2="785.4" y2="370.8" stroke="#BDBDBD" stroke-width="15" stroke-linecap="round"/>
<circle cx="796.1" cy="379.8" r="7.5" fill="#BDBDBD"/>
<line x1="752.5" y1="471.5" x2="755.9" y2="520.4" stroke="#5E2BFF" stroke-width="9" stroke-linecap="round"/>
<path d="M 506.8 264 L 527.6 290 L 506.8 316" stroke="#5628E7" stroke-width="9" fill="none" stroke-linecap="round" stroke-linejoin="round"/>
<path d="M 531.5 264 L 552.3 290 L 531.5 316" stroke="#5628E7" stroke-width="9" fill="none" stroke-linecap="round" stroke-linejoin="round"/>
<path d="M 420 535 Q 420 507.5 420 496.3" stroke="#ECECEC" stroke-width="6" fill="none" stroke-linecap="round"/>
<path d="M 420 480 L 432.6 499.2 L 407.4 499.2 Z" fill="#ECECEC"/>
<path d="M 890 535 Q 890 507.5 890 496.3" stroke="#ECECEC" stroke-width="6" fill="none" stroke-linecap="round"/>
<path d="M 890 480 L 902.6 499.2 L 877.4 499.2 Z" fill="#ECECEC"/>
<path d="M 38 76 L 58 76 L 66 54 L 78 98 L 86 76 L 106 76" stroke="#5628E7" stroke-width="7" fill="none" stroke-linecap="round" stroke-linejoin="round"/>
</svg>