<svg xmlns="http://www.w3.org/2000/svg" width="1080" height="608" viewBox="0 0 1080 608">
<rect width="1080" height="608" fill="#111111"/>
<line x1="60" y1="548" x2="1020" y2="548" stroke="#333333" stroke-width="5" stroke-linecap="round"/>
<line x1="480" y1="486.2" x2="377.7" y2="509.8" stroke="#7F7F7F" stroke-width="33.8" stroke-linecap="round"/>
<line x1="377.7" y1="509.8" x2="280.3" y2="532.3" stroke="#7F7F7F" stroke-width="25" stroke-linecap="round"/>
<line x1="280.3" y1="532.3" x2="240.6" y2="537.8" stroke="#7F7F7F" stroke-width="15" stroke-linecap="round"/>
<line x1="596.9" y1="459.2" x2="590.2" y2="382" stroke="#7F7F7F" stroke-width="23.8" stroke-linecap="round"/>
<line x1="590.2" y1="382" x2="583.9" y2="309.7" stroke="#7F7F7F" stroke-width="18.8" stroke-linecap="round"/>
<circle cx="582.3" cy="292.3" r="8.8" fill="#7F7F7F"/>
<line x1="480" y1="486.2" x2="606.7" y2="456.9" stroke="#BDBDBD" stroke-width="50" stroke-linecap="round"/>
<circle cx="573.7" cy="464.5" r="27.5" fill="#BDBDBD"/>
<circle cx="480" cy="486.2" r="25.6" fill="#BDBDBD"/>
<line x1="606.7" y1="456.9" x2="627.5" y2="450.2" stroke="#BDBDBD" stroke-width="16.2" stroke-linecap="round"/>
<circle cx="648.3" cy="443.4" r="26.2" fill="#BDBDBD"/>
<line x1="480" y1="486.2" x2="377.7" y2="509.8" stroke="#BDBDBD" stroke-width="33.8" stroke-linecap="round"/>
<line x1="377.7" y1="509.8" x2="280.3" y2="532.3" stroke="#BDBDBD" stroke-width="25" stroke-linecap="round"/>
<line x1="280.3" y1="532.3" x2="240.6" y2="537.8" stroke="#BDBDBD" stroke-width="15" stroke-linecap="round"/>
<line x1="596.9" y1="459.2" x2="610.4" y2="535.5" stroke="#BDBDBD" stroke-width="23.8" stroke-linecap="round"/>
<line x1="610.4" y1="535.5" x2="682.8" y2="538" stroke="#BDBDBD" stroke-width="18.8" stroke-linecap="round"/>
<circle cx="700.3" cy="538.6" r="9.4" fill="#BDBDBD"/>
<line x1="518.6" y1="479.8" x2="554" y2="471.6" stroke="#5E2BFF" stroke-width="13.8" stroke-linecap="round"/>
<line x1="505.6" y1="493.1" x2="558.8" y2="480.8" stroke="#7C5AEA" stroke-width="16.2" stroke-linecap="round"/>
<path d="M 520 330 Q 520 300 520 286.3" stroke="#ECECEC" stroke-width="6" fill="none" stroke-linecap="round"/>
<path d="M 520 270 L 532.6 289.2 L 507.4 289.2 Z" fill="#ECECEC"/>
</svg>