<svg xmlns="http://www.w3.org/2000/svg" width="1080" height="608" viewBox="0 0 1080 608">
<rect width="1080" height="608" fill="#111111"/>
<line x1="60" y1="548" x2="1020" y2="548" stroke="#333333" stroke-width="5" stroke-linecap="round"/>
<line x1="330" y1="383.7" x2="276" y2="448" stroke="#7F7F7F" stroke-width="27" stroke-linecap="round"/>
<line x1="276" y1="448" x2="303.4" y2="523.2" stroke="#7F7F7F" stroke-width="20" stroke-linecap="round"/>
<line x1="303.4" y1="523.2" x2="331.1" y2="539.2" stroke="#7F7F7F" stroke-width="12" stroke-linecap="round"/>
<line x1="423.1" y1="406.9" x2="416.7" y2="468.5" stroke="#7F7F7F" stroke-width="19" stroke-linecap="round"/>
<line x1="416.7" y1="468.5" x2="414.6" y2="526.5" stroke="#7F7F7F" stroke-width="15" stroke-linecap="round"/>
<circle cx="414.2" cy="540.5" r="7" fill="#7F7F7F"/>
<line x1="326.7" y1="399.2" x2="291.4" y2="441.3" stroke="#7360AF" stroke-width="13" stroke-linecap="round"/>
<line x1="800" y1="383.7" x2="768.5" y2="461.5" stroke="#7F7F7F" stroke-width="27" stroke-linecap="round"/>
<line x1="768.5" y1="461.5" x2="814.4" y2="527.1" stroke="#7F7F7F" stroke-width="20" stroke-linecap="round"/>
<line x1="814.4" y1="527.1" x2="844.5" y2="538" stroke="#7F7F7F" stroke-width="12" stroke-linecap="round"/>
<line x1="893.1" y1="406.9" x2="899.6" y2="468.5" stroke="#7F7F7F" stroke-width="19" stroke-linecap="round"/>
<line x1="899.6" y1="468.5" x2="905.7" y2="526.2" stroke="#7F7F7F" stroke-width="15" stroke-linecap="round"/>
<circle cx="907.2" cy="540.1" r="7" fill="#7F7F7F"/>
<line x1="801.7" y1="399.4" x2="781.1" y2="450.4" stroke="#7360AF" stroke-width="13" stroke-linecap="round"/>
<line x1="330" y1="383.7" x2="430.9" y2="408.8" stroke="#BDBDBD" stroke-width="40" stroke-linecap="round"/>
<circle cx="404.7" cy="402.3" r="22" fill="#BDBDBD"/>
<circle cx="330" cy="383.7" r="20.5" fill="#BDBDBD"/>
<line x1="430.9" y1="408.8" x2="448.2" y2="406.4" stroke="#BDBDBD" stroke-width="13" stroke-linecap="round"/>
<circle cx="465.6" cy="403.9" r="21" fill="#BDBDBD"/>
<line x1="330" y1="383.7" x2="298.5" y2="461.5" stroke="#BDBDBD" stroke-width="27" stroke-linecap="round"/>
<line x1="298.5" y1="461.5" x2="344.4" y2="527.1" stroke="#BDBDBD" stroke-width="20" stroke-linecap="round"/>
<line x1="344.4" y1="527.1" x2="374.5" y2="538" stroke="#BDBDBD" stroke-width="12" stroke-linecap="round"/>
<line x1="423.1" y1="406.9" x2="429.6" y2="468.5" stroke="#BDBDBD" stroke-width="19" stroke-linecap="round"/>
<line x1="429.6" y1="468.5" x2="435.7" y2="526.2" stroke="#BDBDBD" stroke-width="15" stroke-linecap="round"/>
<circle cx="437.2" cy="540.1" r="7.5" fill="#BDBDBD"/>
<line x1="345.7" y1="397.9" x2="388.1" y2="408.5" stroke="#5E2BFF" stroke-width="13" stroke-linecap="round"/>
<circle cx="423.1" cy="406.9" r="12" fill="#7C5AEA"/>
<line x1="331.7" y1="399.4" x2="311.1" y2="450.4" stroke="#7C5AEA" stroke-width="13" stroke-linecap="round"/>
<line x1="800" y1="383.7" x2="900.9" y2="408.8" stroke="#BDBDBD" stroke-width="40" stroke-linecap="round"/>
<circle cx="874.7" cy="402.3" r="22" fill="#BDBDBD"/>
<circle cx="800" cy="383.7" r="20.5" fill="#BDBDBD"/>
<line x1="900.9" y1="408.8" x2="918.2" y2="406.4" stroke="#BDBDBD" stroke-width="13" stroke-linecap="round"/>
<circle cx="935.6" cy="403.9" r="21" fill="#BDBDBD"/>
<line x1="800" y1="383.7" x2="746" y2="448" stroke="#BDBDBD" stroke-width="27" stroke-linecap="round"/>
<line x1="746" y1="448" x2="773.4" y2="523.2" stroke="#BDBDBD" stroke-width="20" stroke-linecap="round"/>
<line x1="773.4" y1="523.2" x2="801.1" y2="539.2" stroke="#BDBDBD" stroke-width="12" stroke-linecap="round"/>
<line x1="893.1" y1="406.9" x2="886.7" y2="468.5" stroke="#BDBDBD" stroke-width="19" stroke-linecap="round"/>
<line x1="886.7" y1="468.5" x2="884.6" y2="526.5" stroke="#BDBDBD" stroke-width="15" stroke-linecap="round"/>
<circle cx="884.2" cy="540.5" r="7.5" fill="#BDBDBD"/>
<line x1="815.7" y1="397.9" x2="858.1" y2="408.5" stroke="#5E2BFF" stroke-width="13" stroke-linecap="round"/>
<circle cx="893.1" cy="406.9" r="12" fill="#7C5AEA"/>
<line x1="796.7" y1="399.2" x2="761.4" y2="441.3" stroke="#7C5AEA" stroke-width="13" stroke-linecap="round"/>
<path d="M 536.8 254 L 557.6 280 L 536.8 306" stroke="#5628E7" stroke-width="9" fill="none" stroke-linecap="round" stroke-linejoin="round"/>
<path d="M 561.5 254 L 582.3 280 L 561.5 306" stroke="#5628E7" stroke-width="9" fill="none" stroke-linecap="round" stroke-linejoin="round"/>
<path d="M 900 220 Q 950 220 983.7 220" stroke="#ECECEC" stroke-width="6" fill="none" stroke-linecap="round"/>
<path d="M 1000 220 L 980.8 232.6 L 980.8 207.4 Z" fill="#ECECEC"/>
</svg>