<svg xmlns="http://www.w3.org/2000/svg" width="1080" height="608" viewBox="0 0 1080 608">
<rect width="1080" height="608" fill="#111111"/>
<line x1="60" y1="548" x2="1020" y2="548" stroke="#333333" stroke-width="5" stroke-linecap="round"/>
<line x1="300" y1="446" x2="370.4" y2="491.8" stroke="#7F7F7F" stroke-width="27" stroke-linecap="round"/>
<line x1="370.4" y1="491.8" x2="437.5" y2="535.4" stroke="#7F7F7F" stroke-width="20" stroke-linecap="round"/>
<line x1="437.5" y1="535.4" x2="458.1" y2="510.9" stroke="#7F7F7F" stroke-width="12" stroke-linecap="round"/>
<line x1="211.6" y1="408.5" x2="200.9" y2="469.6" stroke="#7F7F7F" stroke-width="19" stroke-linecap="round"/>
<line x1="200.9" y1="469.6" x2="190.8" y2="526.7" stroke="#7F7F7F" stroke-width="15" stroke-linecap="round"/>
<circle cx="188.4" cy="540.5" r="7" fill="#7F7F7F"/>
<line x1="308.5" y1="460.5" x2="352.9" y2="489.4" stroke="#7360AF" stroke-width="12" stroke-linecap="round"/>
<line x1="790" y1="446" x2="860.4" y2="491.8" stroke="#7F7F7F" stroke-width="27" stroke-linecap="round"/>
<line x1="860.4" y1="491.8" x2="927.5" y2="535.4" stroke="#7F7F7F" stroke-width="20" stroke-linecap="round"/>
<line x1="927.5" y1="535.4" x2="948.1" y2="510.9" stroke="#7F7F7F" stroke-width="12" stroke-linecap="round"/>
<line x1="701.6" y1="408.5" x2="663.5" y2="457.4" stroke="#7F7F7F" stroke-width="19" stroke-linecap="round"/>
<line x1="663.5" y1="457.4" x2="636.2" y2="508.6" stroke="#7F7F7F" stroke-width="15" stroke-linecap="round"/>
<circle cx="629.7" cy="521" r="7" fill="#7F7F7F"/>
<line x1="798.5" y1="460.5" x2="842.9" y2="489.4" stroke="#7360AF" stroke-width="12" stroke-linecap="round"/>
<line x1="300" y1="446" x2="204.3" y2="405.4" stroke="#BDBDBD" stroke-width="40" stroke-linecap="round"/>
<circle cx="229.2" cy="416" r="22" fill="#BDBDBD"/>
<circle cx="300" cy="446" r="20.5" fill="#BDBDBD"/>
<line x1="204.3" y1="405.4" x2="186.9" y2="403" stroke="#BDBDBD" stroke-width="13" stroke-linecap="round"/>
<circle cx="169.6" cy="400.5" r="21" fill="#BDBDBD"/>
<line x1="300" y1="446" x2="370.4" y2="491.8" stroke="#BDBDBD" stroke-width="27" stroke-linecap="round"/>
<line x1="370.4" y1="491.8" x2="437.5" y2="535.4" stroke="#BDBDBD" stroke-width="20" stroke-linecap="round"/>
<line x1="437.5" y1="535.4" x2="458.1" y2="510.9" stroke="#BDBDBD" stroke-width="12" stroke-linecap="round"/>
<line x1="211.6" y1="408.5" x2="200.9" y2="469.6" stroke="#BDBDBD" stroke-width="19" stroke-linecap="round"/>
<line x1="200.9" y1="469.6" x2="190.8" y2="526.7" stroke="#BDBDBD" stroke-width="15" stroke-linecap="round"/>
<circle cx="188.4" cy="540.5" r="7.5" fill="#BDBDBD"/>
<line x1="250.1" y1="435.7" x2="213.8" y2="420.3" stroke="#5E2BFF" stroke-width="14" stroke-linecap="round"/>
<circle cx="211.6" cy="408.5" r="12" fill="#7C5AEA"/>
<circle cx="291.5" cy="455.5" r="13" fill="#7C5AEA"/>
<line x1="308.5" y1="460.5" x2="352.9" y2="489.4" stroke="#7C5AEA" stroke-width="12" stroke-linecap="round"/>
<line x1="790" y1="446" x2="694.3" y2="405.4" stroke="#BDBDBD" stroke-width="40" stroke-linecap="round"/>
<circle cx="719.2" cy="416" r="22" fill="#BDBDBD"/>
<circle cx="790" cy="446" r="20.5" fill="#BDBDBD"/>
<line x1="694.3" y1="405.4" x2="676.9" y2="403" stroke="#BDBDBD" stroke-width="13" stroke-linecap="round"/>
<circle cx="659.6" cy="400.5" r="21" fill="#BDBDBD"/>
<line x1="790" y1="446" x2="860.4" y2="491.8" stroke="#BDBDBD" stroke-width="27" stroke-linecap="round"/>
<line x1="860.4" y1="491.8" x2="927.5" y2="535.4" stroke="#BDBDBD" stroke-width="20" stroke-linecap="round"/>
<line x1="927.5" y1="535.4" x2="948.1" y2="510.9" stroke="#BDBDBD" stroke-width="12" stroke-linecap="round"/>
<line x1="701.6" y1="408.5" x2="690.9" y2="469.6" stroke="#BDBDBD" stroke-width="19" stroke-linecap="round"/>
<line x1="690.9" y1="469.6" x2="680.8" y2="526.7" stroke="#BDBDBD" stroke-width="15" stroke-linecap="round"/>
<circle cx="678.4" cy="540.5" r="7.5" fill="#BDBDBD"/>
<line x1="740.1" y1="435.7" x2="703.8" y2="420.3" stroke="#5E2BFF" stroke-width="14" stroke-linecap="round"/>
<circle cx="701.6" cy="408.5" r="12" fill="#7C5AEA"/>
<circle cx="781.5" cy="455.5" r="13" fill="#7C5AEA"/>
<line x1="798.5" y1="460.5" x2="842.9" y2="489.4" stroke="#7C5AEA" stroke-width="12" stroke-linecap="round"/>
<path d="M 501.8 274 L 522.6 300 L 501.8 326" stroke="#5628E7" stroke-width="9" fill="none" stroke-linecap="round" stroke-linejoin="round"/>
<path d="M 526.5 274 L 547.3 300 L 526.5 326" stroke="#5628E7" stroke-width="9" fill="none" stroke-linecap="round" stroke-linejoin="round"/>
<path d="M 610 520 Q 565 520 536.3 520" stroke="#ECECEC" stroke-width="6" fill="none" stroke-linecap="round"/>
<path d="M 520 520 L 539.2 507.4 L 539.2 532.6 Z" fill="#ECECEC"/>
</svg>