<svg xmlns="http://www.w3.org/2000/svg" width="1080" height="608" viewBox="0 0 1080 608">
<rect width="1080" height="608" fill="#111111"/>
<line x1="60" y1="548" x2="1020" y2="548" stroke="#333333" stroke-width="5" stroke-linecap="round"/>
<line x1="398" y1="60" x2="398" y2="548" stroke="#5A5A5A" stroke-width="10" stroke-linecap="round"/>
<line x1="430" y1="428.2" x2="534.7" y2="435.5" stroke="#7F7F7F" stroke-width="33.8" stroke-linecap="round"/>
<line x1="534.7" y1="435.5" x2="534.7" y2="535.5" stroke="#7F7F7F" stroke-width="25" stroke-linecap="round"/>
<line x1="534.7" y1="535.5" x2="574.7" y2="535.5" stroke="#7F7F7F" stroke-width="15" stroke-linecap="round"/>
<line x1="430" y1="308.2" x2="446.1" y2="384" stroke="#7F7F7F" stroke-width="23.8" stroke-linecap="round"/>
<line x1="446.1" y1="384" x2="466.1" y2="453.7" stroke="#7F7F7F" stroke-width="18.8" stroke-linecap="round"/>
<circle cx="470.9" cy="470.5" r="8.8" fill="#7F7F7F"/>
<line x1="448.1" y1="420" x2="516.7" y2="424.8" stroke="#6D51C5" stroke-width="16.2" stroke-linecap="round"/>
<line x1="430" y1="428.2" x2="430" y2="298.2" stroke="#BDBDBD" stroke-width="50" stroke-linecap="round"/>
<circle cx="430" cy="332" r="27.5" fill="#BDBDBD"/>
<circle cx="430" cy="428.2" r="25.6" fill="#BDBDBD"/>
<line x1="430" y1="298.2" x2="430.8" y2="276.3" stroke="#BDBDBD" stroke-width="16.2" stroke-linecap="round"/>
<circle cx="431.5" cy="254.5" r="26.2" fill="#BDBDBD"/>
<line x1="430" y1="428.2" x2="534.7" y2="435.5" stroke="#BDBDBD" stroke-width="33.8" stroke-linecap="round"/>
<line x1="534.7" y1="435.5" x2="534.7" y2="535.5" stroke="#BDBDBD" stroke-width="25" stroke-linecap="round"/>
<line x1="534.7" y1="535.5" x2="574.7" y2="535.5" stroke="#BDBDBD" stroke-width="15" stroke-linecap="round"/>
<line x1="430" y1="308.2" x2="446.1" y2="384" stroke="#BDBDBD" stroke-width="23.8" stroke-linecap="round"/>
<line x1="446.1" y1="384" x2="466.1" y2="453.7" stroke="#BDBDBD" stroke-width="18.8" stroke-linecap="round"/>
<circle cx="470.9" cy="470.5" r="9.4" fill="#BDBDBD"/>
<line x1="448.1" y1="420" x2="516.7" y2="424.8" stroke="#5E2BFF" stroke-width="16.2" stroke-linecap="round"/>
<circle cx="415" cy="423" r="16.2" fill="#7C5AEA"/>
<path d="M 640 290 Q 640 330 640 353.7" stroke="#ECECEC" stroke-width="6" fill="none" stroke-linecap="round"/>
<path d="M 640 370 L 627.4 350.8 L 652.6 350.8 Z" fill="#ECECEC"/>
</svg>