<svg xmlns="http://www.w3.org/2000/svg" width="1080" height="608" viewBox="0 0 1080 608">
<rect width="1080" height="608" fill="#111111"/>
<line x1="60" y1="548" x2="1020" y2="548" stroke="#333333" stroke-width="5" stroke-linecap="round"/>
<line x1="255" y1="380.3" x2="223.5" y2="458.1" stroke="#7F7F7F" stroke-width="27" stroke-linecap="round"/>
<line x1="223.5" y1="458.1" x2="188.5" y2="530.1" stroke="#7F7F7F" stroke-width="20" stroke-linecap="round"/>
<line x1="188.5" y1="530.1" x2="218.9" y2="539.9" stroke="#7F7F7F" stroke-width="12" stroke-linecap="round"/>
<line x1="330.6" y1="439.4" x2="371.3" y2="486.2" stroke="#7F7F7F" stroke-width="19" stroke-linecap="round"/>
<line x1="371.3" y1="486.2" x2="409.4" y2="529.9" stroke="#7F7F7F" stroke-width="15" stroke-linecap="round"/>
<circle cx="418.6" cy="540.5" r="7" fill="#7F7F7F"/>
<line x1="760" y1="488.2" x2="678.2" y2="507.1" stroke="#7F7F7F" stroke-width="27" stroke-linecap="round"/>
<line x1="678.2" y1="507.1" x2="601.6" y2="530.5" stroke="#7F7F7F" stroke-width="20" stroke-linecap="round"/>
<line x1="601.6" y1="530.5" x2="570" y2="535" stroke="#7F7F7F" stroke-width="12" stroke-linecap="round"/>
<line x1="815.1" y1="409.6" x2="795.9" y2="468.5" stroke="#7F7F7F" stroke-width="19" stroke-linecap="round"/>
<line x1="795.9" y1="468.5" x2="793.9" y2="526.5" stroke="#7F7F7F" stroke-width="15" stroke-linecap="round"/>
<circle cx="793.4" cy="540.5" r="7" fill="#7F7F7F"/>
<line x1="255" y1="380.3" x2="337" y2="444.3" stroke="#BDBDBD" stroke-width="40" stroke-linecap="round"/>
<circle cx="315.6" cy="427.6" r="22" fill="#BDBDBD"/>
<circle cx="255" cy="380.3" r="20.5" fill="#BDBDBD"/>
<line x1="337" y1="444.3" x2="348.2" y2="457.7" stroke="#BDBDBD" stroke-width="13" stroke-linecap="round"/>
<circle cx="359.5" cy="471.1" r="21" fill="#BDBDBD"/>
<line x1="255" y1="380.3" x2="223.5" y2="458.1" stroke="#BDBDBD" stroke-width="27" stroke-linecap="round"/>
<line x1="223.5" y1="458.1" x2="188.5" y2="530.1" stroke="#BDBDBD" stroke-width="20" stroke-linecap="round"/>
<line x1="188.5" y1="530.1" x2="218.9" y2="539.9" stroke="#BDBDBD" stroke-width="12" stroke-linecap="round"/>
<line x1="330.6" y1="439.4" x2="371.3" y2="486.2" stroke="#BDBDBD" stroke-width="19" stroke-linecap="round"/>
<line x1="371.3" y1="486.2" x2="409.4" y2="529.9" stroke="#BDBDBD" stroke-width="15" stroke-linecap="round"/>
<circle cx="418.6" cy="540.5" r="7.5" fill="#BDBDBD"/>
<line x1="308.3" y1="406.7" x2="334.5" y2="427.2" stroke="#5E2BFF" stroke-width="17" stroke-linecap="round"/>
<circle cx="330.6" cy="439.4" r="12" fill="#7C5AEA"/>
<line x1="335.1" y1="451.4" x2="360.1" y2="480.1" stroke="#7C5AEA" stroke-width="8.5" stroke-linecap="round"/>
<line x1="288.2" y1="418.9" x2="319.3" y2="443.2" stroke="#7C5AEA" stroke-width="14" stroke-linecap="round"/>
<line x1="760" y1="488.2" x2="819.7" y2="403" stroke="#BDBDBD" stroke-width="40" stroke-linecap="round"/>
<circle cx="804.1" cy="425.2" r="22" fill="#BDBDBD"/>
<circle cx="760" cy="488.2" r="20.5" fill="#BDBDBD"/>
<line x1="819.7" y1="403" x2="825.1" y2="386.4" stroke="#BDBDBD" stroke-width="13" stroke-linecap="round"/>
<circle cx="830.5" cy="369.7" r="21" fill="#BDBDBD"/>
<line x1="760" y1="488.2" x2="678.2" y2="507.1" stroke="#BDBDBD" stroke-width="27" stroke-linecap="round"/>
<line x1="678.2" y1="507.1" x2="601.6" y2="530.5" stroke="#BDBDBD" stroke-width="20" stroke-linecap="round"/>
<line x1="601.6" y1="530.5" x2="570" y2="535" stroke="#BDBDBD" stroke-width="12" stroke-linecap="round"/>
<line x1="815.1" y1="409.6" x2="795.9" y2="468.5" stroke="#BDBDBD" stroke-width="19" stroke-linecap="round"/>
<line x1="795.9" y1="468.5" x2="793.9" y2="526.5" stroke="#BDBDBD" stroke-width="15" stroke-linecap="round"/>
<circle cx="793.4" cy="540.5" r="7.5" fill="#BDBDBD"/>
<line x1="803.2" y1="447.4" x2="822.3" y2="420.1" stroke="#5E2BFF" stroke-width="17" stroke-linecap="round"/>
<circle cx="815.1" cy="409.6" r="12" fill="#7C5AEA"/>
<line x1="807.1" y1="419.6" x2="795.3" y2="455.7" stroke="#7C5AEA" stroke-width="8.5" stroke-linecap="round"/>
<line x1="780.4" y1="441.6" x2="803.1" y2="409.2" stroke="#7C5AEA" stroke-width="14" stroke-linecap="round"/>
<path d="M 501.8 224 L 522.6 250 L 501.8 276" stroke="#5628E7" stroke-width="9" fill="none" stroke-linecap="round" stroke-linejoin="round"/>
<path d="M 526.5 224 L 547.3 250 L 526.5 276" stroke="#5628E7" stroke-width="9" fill="none" stroke-linecap="round" stroke-linejoin="round"/>
<path d="M 560 380 Q 652.3 380.9 691.6 446" stroke="#ECECEC" stroke-width="6" fill="none" stroke-linecap="round"/>
<path d="M 700 460 L 679.3 450.1 L 700.9 437.1 Z" fill="#ECECEC"/>
</svg>